<svg xmlns="http://www.w3.org/2000/svg" xmlns:xlink="http://www.w3.org/1999/xlink" viewBox="0 0 119 119"><defs><path id="a" d="M1229.5 1030c32.86 0 59.5 26.639 59.5 59.5 0 32.86-26.64 59.5-59.5 59.5-32.861 0-59.5-26.64-59.5-59.5 0-32.861 26.639-59.5 59.5-59.5z"/><path id="c" d="M1208.833 1060.983v2.95a.983.983 0 1 1 0 1.967v2.95c0 .544-.44.983-.983.983h-7.867a.983.983 0 0 1-.983-.983v-7.867c0-.544.44-.983.983-.983h7.867c.543 0 .983.44.983.983zm-1.966.984h-5.9v5.9h5.9zm1.966 48.183v7.867c0 .543-.44.983-.983.983h-7.867a.983.983 0 0 1-.983-.983v-7.867c0-.544.44-.983.983-.983h2.95a.983.983 0 1 1 1.967 0h2.95c.543 0 .983.44.983.983zm-1.966.983h-5.9v5.9h5.9zm51.133-50.15v7.867c0 .544-.44.983-.983.983h-7.867a.983.983 0 0 1-.983-.983v-7.867c0-.544.44-.983.983-.983h7.867c.542 0 .983.44.983.983zm-1.967.984h-5.9v5.9h5.9zm1.967 48.183v7.867c0 .543-.44.983-.983.983h-7.867a.983.983 0 0 1-.983-.983v-7.867c0-.544.44-.983.983-.983h2.95a.983.983 0 1 1 1.967 0h2.95c.542 0 .983.44.983.983zm-1.967.983h-5.9v5.9h5.9zm-41.3 2.95c0 .544-.44.984-.983.984h-1.967a.983.983 0 1 1 0-1.967h1.967c.543 0 .983.44.983.983zm1.967-49.167c0 .544-.44.984-.983.984h-2.95a.983.983 0 1 1 0-1.967h2.95c.542 0 .983.44.983.983zm10.817 49.167a.984.984 0 0 1-.984.984h-1.966a.983.983 0 1 1 0-1.967h1.966c.543 0 .984.44.984.983zm-5.9 0a.984.984 0 0 1-.984.984h-2.95a.983.983 0 1 1 0-1.967h2.95c.543 0 .984.44.984.983zm-18.684-20.65v-2.95a.983.983 0 1 1 1.967 0v2.95a.983.983 0 1 1-1.967 0zm0-6.883v-1.967a.983.983 0 1 1 1.967 0v1.967a.983.983 0 1 1-1.967 0zm0-5.9v-1.967a.983.983 0 1 1 1.967 0v1.967a.983.983 0 1 1-1.967 0zm0-5.9v-2.95a.983.983 0 1 1 1.967 0v2.95a.983.983 0 1 1-1.967 0zm0 24.583v-1.967a.983.983 0 1 1 1.967 0v1.967a.983.983 0 1 1-1.967 0zm25.567-34.417c0 .544-.44.984-.983.984h-1.967a.983.983 0 1 1 0-1.967h1.967c.542 0 .983.44.983.983zm-25.567 40.317v-1.966a.983.983 0 1 1 1.967 0v1.966a.983.983 0 1 1-1.967 0zm19.667-40.317c0 .544-.44.984-.983.984h-1.967a.983.983 0 1 1 0-1.967h1.967c.542 0 .983.44.983.983zm31.467 25.567v2.95a.983.983 0 1 1-1.967 0v-2.95a.983.983 0 1 1 1.967 0zm0 12.784v1.966a.983.983 0 1 1-1.967 0v-1.966a.983.983 0 1 1 1.967 0zm0-5.9v1.966a.983.983 0 1 1-1.967 0v-1.967a.983.983 0 1 1 1.967 0zm0-12.784v1.967a.983.983 0 1 1-1.967 0v-1.967a.983.983 0 1 1 1.967 0zm0-12.783v2.95a.983.983 0 1 1-1.967 0v-2.95a.983.983 0 1 1 1.967 0zm0 6.883v1.967a.983.983 0 1 1-1.967 0v-1.967a.983.983 0 1 1 1.967 0zm-7.867 35.4c0 .544-.44.984-.983.984h-1.967a.983.983 0 1 1 0-1.967h1.967c.542 0 .983.44.983.983zm-5.9 0c0 .544-.44.984-.983.984h-2.95a.983.983 0 1 1 0-1.967h2.95c.542 0 .983.44.983.983zm-4.917-49.167c0 .544-.44.984-.983.984h-2.95a.983.983 0 1 1 0-1.967h2.95c.543 0 .983.44.983.983zm5.9 0c0 .544-.44.984-.983.984h-1.967a.983.983 0 1 1 0-1.967h1.967c.543 0 .983.44.983.983zm-7.866 49.167a.984.984 0 0 1-.984.984h-1.966a.983.983 0 1 1 0-1.967h1.966c.543 0 .984.44.984.983zm13.766-49.167c0 .544-.44.984-.983.984h-1.967a.983.983 0 1 1 0-1.967h1.967c.543 0 .983.44.983.983z"/><path id="d" d="M1209.396 1083.898a1.9 1.9 0 0 1 1.437-1.943 2.548 2.548 0 0 1 2.216-1.31c.718 0 1.396.306 1.87.825a2.196 2.196 0 0 1 2.952 2.54.565.565 0 0 1-.55.434h-7.359a.565.565 0 0 1-.564-.53zm1.298-.584h6.089a1.065 1.065 0 0 0-1.684-.658.567.567 0 0 1-.833-.173 1.402 1.402 0 0 0-1.217-.709c-.573 0-1.097.36-1.304.894a.565.565 0 0 1-.495.36.77.77 0 0 0-.556.286zm41 13.183l-11.107 5.75a.566.566 0 0 1-.483.018l-1.21-.517-8.846 4.048 7.887 7.223a.564.564 0 1 1-.764.832l-13.654-12.502-1.135.324a.566.566 0 0 1-.57-.158l-7.925-8.507-1.464.812a.566.566 0 0 1-.662-.082l-6.582-6.161a.564.564 0 1 1 .774-.824l6.28 5.88 1.491-.828a.566.566 0 0 1 .69.11l1.022 1.098 4.077-5.368a.566.566 0 0 1 .765-.129l.798.532 6.153-7.827h-4.477a.565.565 0 0 1-.56-.481 2.942 2.942 0 0 1-.036-.443 2.977 2.977 0 0 1 3.954-2.805 3.63 3.63 0 0 1 2.94-1.492c1.175 0 2.26.56 2.938 1.492a2.977 2.977 0 0 1 3.955 2.805c0 .138-.011.278-.036.443a.565.565 0 0 1-.56.481h-3.609l1.91 2.29.811-.54a.565.565 0 0 1 .797.177l4.943 8.094.857-.143a.566.566 0 0 1 .562.241l5.062 7.48 4.493-2.326a.566.566 0 0 1 .52 1.003zm-28.395-17.405h4.818l.868-1.104a.566.566 0 0 1 .88-.013l.93 1.117h4.006a1.847 1.847 0 0 0-2.748-1.393.566.566 0 0 1-.783-.227 2.504 2.504 0 0 0-2.22-1.343c-.935 0-1.786.515-2.222 1.343a.566.566 0 0 1-.782.227 1.817 1.817 0 0 0-.914-.244c-.948 0-1.73.718-1.833 1.637zm22.37 19.252l-4.785-7.071-.876.145a.566.566 0 0 1-.576-.263l-4.836-7.918-3.772 3.122a.564.564 0 0 1-.798-.057.564.564 0 0 1 .057-.796l2.666-2.307-3.306-3.965-7.44 9.463 2.614 1.914a.564.564 0 1 1-.669.911l-3.855-2.771-3.875 5.1 6.186 6.64 1.107-.315a.566.566 0 0 1 .537.127l5.095 4.665 9.508-4.352a.567.567 0 0 1 .458-.005l1.194.51zm-8.5-3.043c.2.24.167.595-.073.795l-2.005 1.669a.567.567 0 0 1-.666.042l-3.328-2.114-3.693 3.073a.564.564 0 0 1-.797-.072.564.564 0 0 1 .072-.796l4.011-3.337a.566.566 0 0 1 .666-.043l3.328 2.115 1.688-1.405c.24-.2.597-.167.797.073zm-8.62 14.8a.566.566 0 0 1-.758.253l-5.051-2.517-1.833.766a.566.566 0 0 1-.522-.045l-8.231-5.231a.564.564 0 1 1 .607-.953l7.982 5.073 1.8-.752a.566.566 0 0 1 .47.016l5.283 2.633c.28.14.393.478.253.757zm11.524-23.927a2.75 2.75 0 0 1 4.6-2.03 2.24 2.24 0 0 1 3.18 2.029.565.565 0 0 1-.567.565h-6.648a.565.565 0 0 1-.565-.564zm1.233-.565h5.259a1.11 1.11 0 0 0-1.644-.3.565.565 0 0 1-.806-.102 1.606 1.606 0 0 0-1.293-.65 1.62 1.62 0 0 0-1.516 1.052z"/><linearGradient id="b" x1="1229" x2="1230" y1="1149" y2="1030" gradientUnits="userSpaceOnUse"><stop offset="0" stop-color="#6796ce"/><stop offset="1" stop-color="#389ffa"/></linearGradient></defs><g transform="translate(-1170 -1030)"><use fill="#6796ce" xlink:href="#a"/><use fill="url(#b)" xlink:href="#a"/></g><use fill="#fff" xlink:href="#c" transform="translate(-1170 -1030)"/><use fill="#fff" xlink:href="#d" transform="translate(-1170 -1030)"/></svg>