<svg xmlns="http://www.w3.org/2000/svg" xmlns:xlink="http://www.w3.org/1999/xlink" viewBox="0 0 119 119"><defs><path id="a" d="M1229.5 870c32.86 0 59.5 26.64 59.5 59.5s-26.64 59.5-59.5 59.5c-32.861 0-59.5-26.64-59.5-59.5s26.639-59.5 59.5-59.5z"/><path id="c" d="M1226.66 900.385a3.315 3.315 0 0 1-.118.006c-.626 0-1.151-.49-1.188-1.125a1.194 1.194 0 0 1 1.113-1.262 1.192 1.192 0 0 1 1.275 1.086 1.194 1.194 0 0 1-1.083 1.295zm17.326 5.246a1.187 1.187 0 0 1-1.709.1 1.198 1.198 0 0 1-.087-1.689 1.189 1.189 0 0 1 1.68-.089c.491.432.543 1.181.116 1.678zm-5.827-4.17a1.192 1.192 0 0 1-1.556.649l-.04-.017a1.197 1.197 0 0 1-.605-1.578 1.19 1.19 0 0 1 1.567-.609c.6.257.883.95.634 1.555zm8.166 6.9a1.188 1.188 0 0 1-1.676-.171 1.203 1.203 0 0 1 .163-1.684 1.184 1.184 0 0 1 1.67.158l.014.016a1.197 1.197 0 0 1-.171 1.681zm-15.003-9.016a1.193 1.193 0 0 1-1.291 1.085 1.2 1.2 0 0 1-1.088-1.296 1.188 1.188 0 0 1 1.285-1.086l.012.001c.656.059 1.14.638 1.082 1.296zm3.493.815a1.193 1.193 0 0 1-1.448.842 1.196 1.196 0 1 1 1.448-.842zm6.4 3.192a1.19 1.19 0 0 1-1.637.341 1.198 1.198 0 0 1-.376-1.64 1.188 1.188 0 0 1 1.682-.359c.547.367.695 1.109.33 1.658zm10.6 20.954l-1.185-.122 1.185.124a1.19 1.19 0 0 1-1.29 1.082 1.198 1.198 0 0 1-1.083-1.3l.003-.029a1.193 1.193 0 0 1 1.307-1.066c.655.067 1.13.654 1.063 1.311zm-1.921 7.292a1.193 1.193 0 0 1-1.556.624 1.196 1.196 0 0 1-.634-1.566l.016-.038a1.19 1.19 0 0 1 1.577-.597c.598.27.865.976.597 1.577zm-1.681-20.181a1.19 1.19 0 0 1-1.617-.438 1.198 1.198 0 0 1 .409-1.635 1.189 1.189 0 0 1 1.657.444 1.197 1.197 0 0 1-.45 1.629zm2.564 10.38a1.193 1.193 0 0 1-1.26-1.123 1.199 1.199 0 0 1 1.12-1.27 1.189 1.189 0 0 1 1.26 1.117v.012a1.194 1.194 0 0 1-1.12 1.263zm-1.147-7.084a1.185 1.185 0 0 1-1.554-.684 1.196 1.196 0 0 1 .677-1.548 1.19 1.19 0 0 1 1.543.678l-1.11.436 1.11-.433a1.198 1.198 0 0 1-.666 1.55zm.837 3.502a1.193 1.193 0 0 1-1.405-.92 1.19 1.19 0 1 1 2.324-.527l.008.035a1.195 1.195 0 0 1-.927 1.412zm.68 9.803l-.007.028a1.192 1.192 0 1 1-2.299-.629 1.188 1.188 0 0 1 1.45-.857c.637.165 1.02.819.856 1.458zm-43.964-11.248a1.2 1.2 0 0 1-1.44.886 1.19 1.19 0 0 1-.879-1.437l.003-.012a1.191 1.191 0 1 1 2.316.563zm1.064-3.233l-.006.014a1.192 1.192 0 0 1-1.56.636 1.196 1.196 0 0 1-.635-1.565l.003-.009a1.19 1.19 0 0 1 1.56-.64c.606.256.892.956.638 1.564zm-1.969 14.815a1.196 1.196 0 0 1-1.44-.883l-.005-.027a1.191 1.191 0 1 1 2.324-.53 1.193 1.193 0 0 1-.879 1.44zm3.083 6.47a1.192 1.192 0 0 1-1.641-.386l-.014-.024c-.34-.565-.16-1.3.404-1.64a1.19 1.19 0 0 1 1.636.405c.347.56.174 1.296-.385 1.645zm-3.828-9.997l-.09.003c-.618 0-1.14-.473-1.186-1.102v-.011a1.192 1.192 0 0 1 2.376-.176 1.199 1.199 0 0 1-1.1 1.286zm1.109-4.685a1.19 1.19 0 0 1-1.276 1.1 1.196 1.196 0 0 1-1.1-1.281l.002-.03a1.193 1.193 0 0 1 1.292-1.085c.655.058 1.14.638 1.082 1.296zm16.629-19.262a1.193 1.193 0 0 1-1.429-.887 1.194 1.194 0 0 1 .88-1.439l.042-.01a1.195 1.195 0 1 1 .507 2.335zm-6.27 2.533a1.19 1.19 0 0 1-1.633-.39 1.196 1.196 0 0 1 .383-1.645l.044-.026a1.19 1.19 0 0 1 1.627.439 1.197 1.197 0 0 1-.421 1.622zm3.028-1.515a1.192 1.192 0 0 1-1.548-.652 1.195 1.195 0 0 1 .694-1.578 1.19 1.19 0 0 1 1.534.699 1.196 1.196 0 0 1-.68 1.531zm-5.792 3.497a1.187 1.187 0 0 1-1.68-.14 1.197 1.197 0 0 1 .14-1.684l.018-.015a1.19 1.19 0 0 1 1.677.156c.42.508.351 1.261-.155 1.683zm-2.42 2.39a1.197 1.197 0 0 1-1.681.115 1.193 1.193 0 0 1-.121-1.677l.014-.017a1.189 1.189 0 0 1 1.681-.107c.494.435.542 1.19.108 1.686zm-4.254 23.926a1.193 1.193 0 0 1-1.57-.664 1.196 1.196 0 0 1 .656-1.557 1.19 1.19 0 0 1 1.552.657 1.195 1.195 0 0 1-.638 1.564zm2.245-21.195a1.2 1.2 0 0 1-1.02.569 1.192 1.192 0 0 1-1.01-1.819l.006-.01a1.189 1.189 0 0 1 1.64-.385c.56.348.731 1.085.384 1.645zm49.192 42.29c0 .66-.534 1.196-1.191 1.196H1199.191a1.193 1.193 0 0 1-1.191-1.196c0-.66.533-1.195 1.191-1.195h1.936l13.583-20.214a3.45 3.45 0 0 1 5.735 0l1.921 2.859 8.079-12.023a3.452 3.452 0 0 1 1.676-1.317V909.93c0-.405.204-.782.542-1.002.338-.22.763-.255 1.132-.091l6.51 2.892a1.195 1.195 0 0 1 .152 2.105l-5.953 3.75v3.33a3.457 3.457 0 0 1 1.676 1.317l19.723 29.352.016.026h1.89c.657 0 1.19.536 1.19 1.195zm-24.496-38.043l2.789-1.756-2.79-1.24zm18.543 36.848l-18.843-28.042a1.06 1.06 0 0 0-.892-.476c-.363 0-.688.173-.891.476l-13.74 20.447a1.189 1.189 0 0 1-1.653.323 1.197 1.197 0 0 1-.322-1.659l4.224-6.286-2.46-3.661a1.06 1.06 0 0 0-.893-.476 1.06 1.06 0 0 0-.891.476L1204 951.609zm-38.367-5.029c.658 0 1.191.535 1.191 1.195s-.533 1.195-1.191 1.195a1.193 1.193 0 0 1-1.192-1.195c0-.66.534-1.195 1.192-1.195z"/><linearGradient id="b" x1="1229" x2="1230" y1="989" y2="870" gradientUnits="userSpaceOnUse"><stop offset="0" stop-color="#6796ce"/><stop offset="1" stop-color="#389ffa"/></linearGradient></defs><g transform="translate(-1170 -870)"><use fill="#6796ce" xlink:href="#a"/><use fill="url(#b)" xlink:href="#a"/></g><use fill="#fff" xlink:href="#c" transform="translate(-1170 -870)"/></svg>