<svg xmlns="http://www.w3.org/2000/svg" viewBox="0 0 66 89"><path data-name="Shape 1 копия" d="M34.742 1.09a1.2 1.2 0 1 0-1.2 1.3H33.659a1.2 1.2 0 0 0 1.083-1.3zm16.129 4.863a1.194 1.194 0 0 0-1.594 1.777l.029.025a1.189 1.189 0 0 0 1.68-.124 1.2 1.2 0 0 0-.115-1.678zm-6.346-4.047a1.195 1.195 0 0 0-.962 2.187l.04.017a1.188 1.188 0 0 0 1.556-.649 1.2 1.2 0 0 0-.634-1.555zM53.5 8.68l-.013-.016a1.184 1.184 0 0 0-1.671-.157 1.2 1.2 0 0 0-.163 1.683A1.193 1.193 0 1 0 53.5 8.68zM37.24.049h-.012a1.2 1.2 0 0 0-.2 2.382h.106A1.2 1.2 0 0 0 37.24.049zm3.739.644l-.044-.012A1.195 1.195 0 0 0 40.367 3a1.176 1.176 0 0 0 .3.039 1.2 1.2 0 0 0 .312-2.346zm6.9 3l-.043-.027a1.193 1.193 0 1 0 .048.029zM57.752 25a1.193 1.193 0 0 0-1.307 1.066v.029a1.2 1.2 0 0 0 1.082 1.3h.107a1.189 1.189 0 0 0 1.184-1.086l-1.185-.125 1.185.123A1.193 1.193 0 0 0 57.752 25zM56.3 32.021a1.191 1.191 0 0 0-1.577.6l-.016.039a1.192 1.192 0 1 0 1.593-.639zm-.635-20.233l-.023-.039a1.192 1.192 0 1 0 .02.039zM58.9 22.533v-.012a1.186 1.186 0 0 0-1.259-1.117 1.2 1.2 0 0 0 .069 2.394h.071a1.2 1.2 0 0 0 1.119-1.265zm-1.6-7.371l-1.111.432 1.11-.435a1.192 1.192 0 1 0-2.22.87l.009.023a1.192 1.192 0 0 0 2.212-.89zm1.1 3.641l-.008-.036a1.192 1.192 0 1 0-1.161 1.472 1.194 1.194 0 0 0 1.163-1.439zm-1.1 9.757a1.2 1.2 0 1 0 .849 1.485c0-.005.006-.022.007-.028a1.2 1.2 0 0 0-.865-1.457zM13.305 17.327a1.191 1.191 0 0 0-1.438.88v.012a1.192 1.192 0 1 0 1.438-.892zm1.3-3.354a1.191 1.191 0 0 0-1.56.64v.009a1.2 1.2 0 0 0 .634 1.565 1.188 1.188 0 0 0 1.561-.637l.006-.013a1.2 1.2 0 0 0-.637-1.564zm-.453 14.939a1.192 1.192 0 1 0-2.324.53.283.283 0 0 1 .007.028 1.194 1.194 0 1 0 2.321-.558zm2.59 6.265a1.192 1.192 0 1 0-2.04 1.235.237.237 0 0 0 .014.023 1.193 1.193 0 0 0 1.015.566 1.181 1.181 0 0 0 .626-.18 1.2 1.2 0 0 0 .389-1.644zm-3.113-9.638a1.191 1.191 0 1 0-2.376.175v.012a1.188 1.188 0 0 0 1.186 1.1h.09a1.2 1.2 0 0 0 1.104-1.286zm-1.073-4.7a1.194 1.194 0 0 0-1.292 1.086v.029a1.2 1.2 0 0 0 1.1 1.282h.089a1.2 1.2 0 0 0 .107-2.392zm18.616-19.38A1.19 1.19 0 0 0 29.76.538l-.041.009A1.2 1.2 0 0 0 30 2.909a1.208 1.208 0 0 0 .27-.031 1.2 1.2 0 0 0 .906-1.414zm-6.754 2.325a1.189 1.189 0 0 0-1.627-.439l-.044.026a1.194 1.194 0 1 0 1.675.418zm3.287-1.424a1.191 1.191 0 0 0-1.534-.7l-.047.019a1.195 1.195 0 1 0 1.585.686zm-6.317 3.345a1.188 1.188 0 0 0-1.677-.156l-.018.015a1.194 1.194 0 1 0 1.699.146zM18.71 8.1a1.188 1.188 0 0 0-1.681.107l-.014.016A1.193 1.193 0 1 0 18.71 8.1zM15.2 32.145a1.192 1.192 0 1 0-2.208.9l.008.023a1.193 1.193 0 1 0 2.2-.923zm1.223-21.277a1.188 1.188 0 0 0-1.64.385l-.007.01a1.192 1.192 0 0 0 .387 1.64 1.176 1.176 0 0 0 .624.178 1.2 1.2 0 0 0 .637-2.212zM64.809 53.61h-1.89l-.016-.027L43.18 24.231a3.456 3.456 0 0 0-1.676-1.317v-3.331l5.953-3.749a1.2 1.2 0 0 0-.151-2.1L40.8 10.837a1.192 1.192 0 0 0-1.674 1.093v10.984a3.456 3.456 0 0 0-1.676 1.317l-8.079 12.023-1.926-2.854a3.452 3.452 0 0 0-5.735 0L8.127 53.61H6.191a1.195 1.195 0 0 0 0 2.39h58.618a1.195 1.195 0 0 0 0-2.39zM41.5 13.766L44.293 15 41.5 16.761v-3zM11 53.61l12.686-18.879a1.073 1.073 0 0 1 1.783 0l2.461 3.661-4.224 6.286a1.193 1.193 0 1 0 1.976 1.336l13.739-20.447a1.073 1.073 0 0 1 1.783 0L60.047 53.61H11zm10.68-5.03a1.2 1.2 0 1 1-1.192 1.2 1.193 1.193 0 0 1 1.192-1.2z" fill-rule="evenodd" fill="#fff"/><text x="33.001" y="89" style="text-transform:uppercase" font-size="24" text-anchor="middle" font-family="Gotham Pro" font-weight="800" fill="#fff">Alps</text></svg>